<svg width="169" height="22" viewBox="0 0 169 22" fill="none" xmlns="http://www.w3.org/2000/svg">
<path d="M4.30085 0.667998C5.20218 0.667998 5.89551 0.858665 6.38085 1.24C6.88351 1.62133 7.13485 2.176 7.13485 2.904C7.13485 3.632 6.88351 4.18667 6.38085 4.568C5.89551 4.94933 5.20218 5.14 4.30085 5.14C3.38218 5.14 2.68018 4.94933 2.19485 4.568C1.70951 4.18667 1.46685 3.632 1.46685 2.904C1.46685 2.176 1.70951 1.62133 2.19485 1.24C2.68018 0.858665 3.38218 0.667998 4.30085 0.667998ZM6.79685 18.582C6.79685 19.2927 6.90085 19.7867 7.10885 20.064C7.33418 20.324 7.71551 20.454 8.25285 20.454V21C6.38085 20.9307 5.15018 20.896 4.56085 20.896C3.97151 20.896 2.67151 20.9307 0.660845 21V20.454C1.19818 20.454 1.57085 20.324 1.77885 20.064C2.00418 19.7867 2.11685 19.2927 2.11685 18.582V10.34C2.11685 9.54267 2.00418 8.962 1.77885 8.598C1.57085 8.234 1.19818 8.052 0.660845 8.052V7.506C1.21551 7.558 1.75285 7.584 2.27285 7.584C4.07551 7.584 5.58351 7.46267 6.79685 7.22V18.582Z" fill="#57A859"/>
<path d="M19.4929 4.828C20.5849 4.828 21.4515 4.97533 22.0929 5.27C22.7515 5.54733 23.4102 5.96333 24.0689 6.518C24.2595 6.674 24.4242 6.752 24.5629 6.752C24.9095 6.752 25.1349 6.232 25.2389 5.192H25.8369C25.7675 6.232 25.7329 8.052 25.7329 10.652H25.1349C24.9442 9.68133 24.7622 8.988 24.5889 8.572C24.4329 8.13867 24.1815 7.72267 23.8349 7.324C23.3495 6.78667 22.8209 6.37067 22.2489 6.076C21.6769 5.764 21.0875 5.608 20.4809 5.608C19.5622 5.608 18.7649 5.91133 18.0889 6.518C17.4129 7.12467 16.8842 8 16.5029 9.144C16.1389 10.2707 15.9569 11.6053 15.9569 13.148C15.9569 14.708 16.1649 16.0513 16.5809 17.178C16.9969 18.2873 17.5602 19.1367 18.2709 19.726C18.9815 20.298 19.7789 20.584 20.6629 20.584C21.3042 20.584 21.9282 20.4367 22.5349 20.142C23.1415 19.83 23.6702 19.4053 24.1209 18.868C24.4675 18.452 24.7189 18.0013 24.8749 17.516C25.0309 17.0133 25.1782 16.268 25.3169 15.28H25.9149C25.9149 18.0013 25.9495 19.908 26.0189 21H25.4209C25.3689 20.4627 25.2909 20.0727 25.1869 19.83C25.0829 19.57 24.9442 19.44 24.7709 19.44C24.6322 19.44 24.4589 19.518 24.2509 19.674C23.6269 20.194 22.9422 20.61 22.1969 20.922C21.4515 21.2167 20.5762 21.364 19.5709 21.364C17.8549 21.364 16.3295 21.0433 14.9949 20.402C13.6775 19.7607 12.6375 18.8333 11.8749 17.62C11.1295 16.3893 10.7569 14.9333 10.7569 13.252C10.7569 11.6053 11.1382 10.1493 11.9009 8.884C12.6809 7.60133 13.7295 6.60467 15.0469 5.894C16.3815 5.18333 17.8635 4.828 19.4929 4.828ZM38.5567 4.828C40.4113 4.828 42.032 5.14867 43.4187 5.79C44.8227 6.414 45.906 7.34133 46.6687 8.572C47.4487 9.78533 47.8387 11.2413 47.8387 12.94C47.8387 14.604 47.44 16.0773 46.6427 17.36C45.8627 18.6253 44.762 19.6133 43.3407 20.324C41.9367 21.0173 40.3333 21.364 38.5307 21.364C36.676 21.364 35.0467 21.052 33.6427 20.428C32.256 19.7867 31.1727 18.8593 30.3927 17.646C29.63 16.4153 29.2487 14.9507 29.2487 13.252C29.2487 11.588 29.6387 10.1233 30.4187 8.858C31.216 7.57533 32.3167 6.58733 33.7207 5.894C35.142 5.18333 36.754 4.828 38.5567 4.828ZM38.4527 5.296C37.6553 5.296 36.9533 5.634 36.3467 6.31C35.74 6.96867 35.272 7.896 34.9427 9.092C34.6133 10.2707 34.4487 11.6227 34.4487 13.148C34.4487 14.6907 34.6307 16.0513 34.9947 17.23C35.376 18.4087 35.8787 19.3187 36.5027 19.96C37.144 20.584 37.8547 20.896 38.6347 20.896C39.432 20.896 40.134 20.5667 40.7407 19.908C41.3473 19.232 41.8153 18.3047 42.1447 17.126C42.474 15.93 42.6387 14.5693 42.6387 13.044C42.6387 11.5013 42.448 10.1407 42.0667 8.962C41.7027 7.78333 41.2 6.882 40.5587 6.258C39.9347 5.61667 39.2327 5.296 38.4527 5.296ZM72.5282 5.712C71.9042 5.74667 71.4449 5.816 71.1502 5.92C70.8729 6.024 70.6822 6.22333 70.5782 6.518C70.4742 6.81267 70.4222 7.28933 70.4222 7.948V18.244C70.4222 18.9027 70.4742 19.3793 70.5782 19.674C70.6822 19.9687 70.8729 20.168 71.1502 20.272C71.4449 20.376 71.9042 20.4453 72.5282 20.48V21C71.5229 20.948 70.0756 20.922 68.1862 20.922C65.8462 20.922 64.1302 20.948 63.0382 21V20.48C63.6622 20.4453 64.1129 20.376 64.3902 20.272C64.6849 20.168 64.8842 19.9687 64.9882 19.674C65.0922 19.3793 65.1442 18.9027 65.1442 18.244V6.83L59.3982 21.13H58.9822L52.9502 6.856V17.204C52.9502 18.036 53.0196 18.66 53.1582 19.076C53.3142 19.492 53.5916 19.804 53.9902 20.012C54.3889 20.2027 55.0042 20.3587 55.8362 20.48V21C54.9869 20.948 53.9296 20.922 52.6642 20.922C51.7456 20.922 51.0262 20.948 50.5062 21V20.48C51.0609 20.3587 51.4596 20.2027 51.7022 20.012C51.9622 19.804 52.1356 19.5007 52.2222 19.102C52.3089 18.686 52.3522 18.0533 52.3522 17.204V7.948C52.3522 7.28933 52.3002 6.81267 52.1962 6.518C52.0922 6.22333 51.8929 6.024 51.5982 5.92C51.3209 5.816 50.8702 5.74667 50.2462 5.712V5.192C51.3902 5.244 53.1496 5.27 55.5242 5.27C56.4776 5.27 57.2749 5.244 57.9162 5.192L61.6082 14.032L65.1442 5.27H68.1862C70.0756 5.27 71.5229 5.244 72.5282 5.192V5.712ZM97.1645 5.712C96.5405 5.74667 96.0812 5.816 95.7865 5.92C95.5092 6.024 95.3185 6.22333 95.2145 6.518C95.1105 6.81267 95.0585 7.28933 95.0585 7.948V18.244C95.0585 18.9027 95.1105 19.3793 95.2145 19.674C95.3185 19.9687 95.5092 20.168 95.7865 20.272C96.0812 20.376 96.5405 20.4453 97.1645 20.48V21C96.1592 20.948 94.7119 20.922 92.8225 20.922C90.4825 20.922 88.7665 20.948 87.6745 21V20.48C88.2985 20.4453 88.7492 20.376 89.0265 20.272C89.3212 20.168 89.5205 19.9687 89.6245 19.674C89.7285 19.3793 89.7805 18.9027 89.7805 18.244V6.83L84.0345 21.13H83.6185L77.5865 6.856V17.204C77.5865 18.036 77.6559 18.66 77.7945 19.076C77.9505 19.492 78.2279 19.804 78.6265 20.012C79.0252 20.2027 79.6405 20.3587 80.4725 20.48V21C79.6232 20.948 78.5659 20.922 77.3005 20.922C76.3819 20.922 75.6625 20.948 75.1425 21V20.48C75.6972 20.3587 76.0959 20.2027 76.3385 20.012C76.5985 19.804 76.7719 19.5007 76.8585 19.102C76.9452 18.686 76.9885 18.0533 76.9885 17.204V7.948C76.9885 7.28933 76.9365 6.81267 76.8325 6.518C76.7285 6.22333 76.5292 6.024 76.2345 5.92C75.9572 5.816 75.5065 5.74667 74.8825 5.712V5.192C76.0265 5.244 77.7859 5.27 80.1605 5.27C81.1139 5.27 81.9112 5.244 82.5525 5.192L86.2445 14.032L89.7805 5.27H92.8225C94.7119 5.27 96.1592 5.244 97.1645 5.192V5.712ZM113.793 17.412C113.793 18.4693 113.854 19.6653 113.975 21C112.848 20.948 110.95 20.922 108.281 20.922C104.468 20.922 101.608 20.948 99.7009 21V20.48C100.256 20.4453 100.654 20.376 100.897 20.272C101.157 20.168 101.33 19.9687 101.417 19.674C101.504 19.3793 101.547 18.9027 101.547 18.244V7.948C101.547 7.28933 101.495 6.81267 101.391 6.518C101.304 6.22333 101.14 6.024 100.897 5.92C100.654 5.816 100.256 5.74667 99.7009 5.712V5.192C101.608 5.244 104.468 5.27 108.281 5.27C110.708 5.27 112.432 5.244 113.455 5.192C113.334 6.42267 113.273 7.532 113.273 8.52C113.273 9.196 113.299 9.73333 113.351 10.132H112.753C112.406 8.58933 111.852 7.48 111.089 6.804C110.344 6.128 109.39 5.79 108.229 5.79H107.891C107.406 5.79 107.059 5.87667 106.851 6.05C106.66 6.22333 106.565 6.596 106.565 7.168V12.784H107.163C107.995 12.784 108.654 12.4893 109.139 11.9C109.642 11.2933 109.962 10.6173 110.101 9.872H110.699C110.647 10.4613 110.621 11.1547 110.621 11.952V13.044C110.621 13.8933 110.673 14.9507 110.777 16.216H110.179C110.058 15.384 109.737 14.6907 109.217 14.136C108.697 13.5813 108.012 13.304 107.163 13.304H106.565V19.024C106.565 19.596 106.66 19.9687 106.851 20.142C107.059 20.3153 107.406 20.402 107.891 20.402H108.489C109.702 20.402 110.708 20.0293 111.505 19.284C112.32 18.5213 112.909 17.2733 113.273 15.54H113.871C113.819 16.0253 113.793 16.6493 113.793 17.412ZM134.759 19.908C134.273 20.3933 133.736 20.7573 133.147 21C132.575 21.2427 131.838 21.364 130.937 21.364C129.81 21.364 128.943 21.1733 128.337 20.792C127.73 20.3933 127.34 19.8473 127.167 19.154L126.439 16.216C126.283 15.2627 126.04 14.63 125.711 14.318C125.381 13.9887 124.896 13.824 124.255 13.824H123.813V18.244C123.813 18.9027 123.856 19.3793 123.943 19.674C124.047 19.9687 124.22 20.168 124.463 20.272C124.705 20.376 125.104 20.4453 125.659 20.48V21C124.549 20.948 122.929 20.922 120.797 20.922C119.063 20.922 117.781 20.948 116.949 21V20.48C117.503 20.4453 117.902 20.376 118.145 20.272C118.405 20.168 118.578 19.9687 118.665 19.674C118.751 19.3793 118.795 18.9027 118.795 18.244V7.948C118.795 7.28933 118.743 6.81267 118.639 6.518C118.552 6.22333 118.387 6.024 118.145 5.92C117.902 5.816 117.503 5.74667 116.949 5.712V5.192C117.781 5.244 119.011 5.27 120.641 5.27L123.813 5.244C124.177 5.22667 124.601 5.218 125.087 5.218C130.131 5.218 132.653 6.55267 132.653 9.222C132.653 10.3313 132.15 11.2933 131.145 12.108C130.157 12.9227 128.484 13.434 126.127 13.642C126.196 13.642 126.283 13.6507 126.387 13.668C126.508 13.668 126.647 13.6853 126.803 13.72C128.259 13.8587 129.403 14.136 130.235 14.552C131.084 14.9507 131.621 15.6007 131.847 16.502L132.393 18.79C132.497 19.2233 132.635 19.5267 132.809 19.7C132.982 19.856 133.207 19.934 133.485 19.934C133.797 19.934 134.1 19.8127 134.395 19.57L134.759 19.908ZM124.957 5.712C124.627 5.712 124.385 5.77267 124.229 5.894C124.073 6.01533 123.96 6.232 123.891 6.544C123.839 6.856 123.813 7.324 123.813 7.948V13.304H124.515C125.641 13.304 126.413 12.9747 126.829 12.316C127.245 11.64 127.453 10.704 127.453 9.508C127.453 8.24267 127.262 7.298 126.881 6.674C126.499 6.03267 125.858 5.712 124.957 5.712ZM144.942 4.828C146.034 4.828 146.9 4.97533 147.542 5.27C148.2 5.54733 148.859 5.96333 149.518 6.518C149.708 6.674 149.873 6.752 150.012 6.752C150.358 6.752 150.584 6.232 150.688 5.192H151.286C151.216 6.232 151.182 8.052 151.182 10.652H150.584C150.393 9.68133 150.211 8.988 150.038 8.572C149.882 8.13867 149.63 7.72267 149.284 7.324C148.798 6.78667 148.27 6.37067 147.698 6.076C147.126 5.764 146.536 5.608 145.93 5.608C145.011 5.608 144.214 5.91133 143.538 6.518C142.862 7.12467 142.333 8 141.952 9.144C141.588 10.2707 141.406 11.6053 141.406 13.148C141.406 14.708 141.614 16.0513 142.03 17.178C142.446 18.2873 143.009 19.1367 143.72 19.726C144.43 20.298 145.228 20.584 146.112 20.584C146.753 20.584 147.377 20.4367 147.984 20.142C148.59 19.83 149.119 19.4053 149.57 18.868C149.916 18.452 150.168 18.0013 150.324 17.516C150.48 17.0133 150.627 16.268 150.766 15.28H151.364C151.364 18.0013 151.398 19.908 151.468 21H150.87C150.818 20.4627 150.74 20.0727 150.636 19.83C150.532 19.57 150.393 19.44 150.22 19.44C150.081 19.44 149.908 19.518 149.7 19.674C149.076 20.194 148.391 20.61 147.646 20.922C146.9 21.2167 146.025 21.364 145.02 21.364C143.304 21.364 141.778 21.0433 140.444 20.402C139.126 19.7607 138.086 18.8333 137.324 17.62C136.578 16.3893 136.206 14.9333 136.206 13.252C136.206 11.6053 136.587 10.1493 137.35 8.884C138.13 7.60133 139.178 6.60467 140.496 5.894C141.83 5.18333 143.312 4.828 144.942 4.828ZM168.634 17.412C168.634 18.4693 168.694 19.6653 168.816 21C167.689 20.948 165.791 20.922 163.122 20.922C159.308 20.922 156.448 20.948 154.542 21V20.48C155.096 20.4453 155.495 20.376 155.738 20.272C155.998 20.168 156.171 19.9687 156.258 19.674C156.344 19.3793 156.388 18.9027 156.388 18.244V7.948C156.388 7.28933 156.336 6.81267 156.232 6.518C156.145 6.22333 155.98 6.024 155.738 5.92C155.495 5.816 155.096 5.74667 154.542 5.712V5.192C156.448 5.244 159.308 5.27 163.122 5.27C165.548 5.27 167.273 5.244 168.296 5.192C168.174 6.42267 168.114 7.532 168.114 8.52C168.114 9.196 168.14 9.73333 168.192 10.132H167.594C167.247 8.58933 166.692 7.48 165.93 6.804C165.184 6.128 164.231 5.79 163.07 5.79H162.732C162.246 5.79 161.9 5.87667 161.692 6.05C161.501 6.22333 161.406 6.596 161.406 7.168V12.784H162.004C162.836 12.784 163.494 12.4893 163.98 11.9C164.482 11.2933 164.803 10.6173 164.942 9.872H165.54C165.488 10.4613 165.462 11.1547 165.462 11.952V13.044C165.462 13.8933 165.514 14.9507 165.618 16.216H165.02C164.898 15.384 164.578 14.6907 164.058 14.136C163.538 13.5813 162.853 13.304 162.004 13.304H161.406V19.024C161.406 19.596 161.501 19.9687 161.692 20.142C161.9 20.3153 162.246 20.402 162.732 20.402H163.33C164.543 20.402 165.548 20.0293 166.346 19.284C167.16 18.5213 167.75 17.2733 168.114 15.54H168.712C168.66 16.0253 168.634 16.6493 168.634 17.412Z" fill="black"/>
</svg>
